<svg width="15" height="15" viewBox="0 0 15 15" fill="none" xmlns="http://www.w3.org/2000/svg">
<path d="M6.71875 2.9L3.95 1.53125C2.45625 0.800005 1.23125 1.54375 1.23125 3.18125V12.4563C1.23125 13.1688 1.825 13.75 2.55 13.75H7.1875C7.53125 13.75 7.8125 13.4688 7.8125 13.125V4.63125C7.8125 3.975 7.31875 3.19375 6.71875 2.9ZM5.60625 8.59375H3.4375C3.18125 8.59375 2.96875 8.38125 2.96875 8.125C2.96875 7.86875 3.18125 7.65625 3.4375 7.65625H5.60625C5.8625 7.65625 6.075 7.86875 6.075 8.125C6.075 8.38125 5.86875 8.59375 5.60625 8.59375ZM5.60625 6.09375H3.4375C3.18125 6.09375 2.96875 5.88125 2.96875 5.625C2.96875 5.36875 3.18125 5.15625 3.4375 5.15625H5.60625C5.8625 5.15625 6.075 5.36875 6.075 5.625C6.075 5.88125 5.86875 6.09375 5.60625 6.09375Z" fill="white"/>
<path d="M13.75 11.275V12.1875C13.75 13.05 13.05 13.75 12.1875 13.75H9.35625C9.01875 13.75 8.75 13.4812 8.75 13.1437V11.7937C9.41875 11.875 10.125 11.6812 10.6313 11.275C11.0563 11.6187 11.6 11.825 12.1938 11.825C12.775 11.825 13.3188 11.6187 13.75 11.275Z" fill="white"/>
<path d="M13.75 9.40625V9.4125C13.7 10.2312 13.0313 10.8875 12.1938 10.8875C11.325 10.8875 10.6313 10.1812 10.6313 9.325C10.6313 10.2812 9.75 11.05 8.75 10.8562V7.5C8.75 7.1 9.11875 6.8 9.5125 6.8875L10.6313 7.1375L10.9312 7.20625L12.2063 7.49375C12.5125 7.55625 12.7938 7.6625 13.0375 7.81875C13.0375 7.825 13.0438 7.825 13.0438 7.825C13.1063 7.86875 13.1687 7.91875 13.225 7.975C13.5125 8.2625 13.7 8.68125 13.7437 9.29375C13.7437 9.33125 13.75 9.36875 13.75 9.40625Z" fill="white"/>
</svg>
