<svg width="25" height="25" viewBox="0 0 25 25" fill="none" xmlns="http://www.w3.org/2000/svg">
        <path d="M21.9683 7.27083C21.0829 6.29167 19.6142 5.80208 17.4579 5.80208H17.2079V5.76042C17.2079 4.01042 17.2079 1.84375 13.2913 1.84375H11.7079C7.79126 1.84375 7.79126 4.01042 7.79126 5.76042V5.80208H7.54126C5.38501 5.80208 3.90584 6.29167 3.03084 7.27083C1.99959 8.42708 2.03084 9.95833 2.13501 11.0104L2.14542 11.0833L2.21826 11.9331C2.23145 12.087 2.31501 12.2263 2.44472 12.3103C2.74271 12.5031 3.06029 12.7062 3.36417 12.875C3.51001 12.9688 3.66626 13.0521 3.82251 13.1354C4.99959 13.7813 6.26001 14.2917 7.55167 14.6458C7.58292 17.3438 9.79126 19.5313 12.4996 19.5313C15.2288 19.5313 17.4475 17.3125 17.4475 14.5833V14.5417C18.76 14.1458 20.0204 13.5938 21.1975 12.9063C21.26 12.875 21.3017 12.8438 21.3538 12.8125C21.7675 12.5876 22.1968 12.2929 22.588 12.0154C22.7042 11.9329 22.7792 11.8044 22.7946 11.6627L22.8642 11.0208C22.8746 10.9583 22.8746 10.9062 22.885 10.8333C22.9683 9.79167 22.9475 8.35417 21.9683 7.27083ZM9.28084 5.76042C9.28084 3.98958 9.28084 3.32292 11.7079 3.32292H13.2913C15.7183 3.32292 15.7183 3.98958 15.7183 5.76042V5.80208H9.28084V5.76042ZM12.4996 17.9688C10.7808 17.9688 9.35376 16.6771 9.14542 15.0104C9.12459 14.875 9.11418 14.7292 9.11418 14.5833C9.11418 12.7188 10.635 11.1979 12.4996 11.1979C14.3642 11.1979 15.885 12.7188 15.885 14.5833C15.885 14.7083 15.8746 14.8229 15.8642 14.9375V14.9479C15.6767 16.6458 14.2392 17.9688 12.4996 17.9688Z" fill="#F97801" />
        <path d="M11.9076 16.6998C11.7096 16.6998 11.5117 16.6269 11.3555 16.4707L10.3242 15.4498C10.0221 15.1477 10.0221 14.6477 10.3242 14.3457C10.6263 14.0436 11.1263 14.0436 11.4284 14.3457L11.9284 14.8457L13.6055 13.304C13.918 13.0123 14.418 13.0332 14.7096 13.3457C15.0013 13.6582 14.9805 14.1582 14.668 14.4498L12.4492 16.5019C12.2826 16.6269 12.0951 16.6998 11.9076 16.6998Z" fill="#F97801" />
        <path d="M21.918 14.3047C22.1771 14.1608 22.5132 14.3693 22.4862 14.6645L22.1159 18.7109C21.8971 20.7943 21.043 22.9193 16.4596 22.9193H8.52214C3.9388 22.9193 3.08464 20.7943 2.8763 18.7214L2.51602 14.8637C2.48805 14.5642 2.80837 14.3619 3.07422 14.5026V14.5026C3.88672 14.9505 4.73047 15.3464 5.59505 15.6589C5.91797 15.7734 6.14713 16.0443 6.24088 16.3776C7.02213 19.0859 9.54297 21.0964 12.5013 21.0964C15.5117 21.0964 18.0534 19.0443 18.793 16.2318C18.8763 15.8984 19.1055 15.6276 19.4284 15.5026C20.3034 15.1589 21.1367 14.7526 21.918 14.3047V14.3047Z" fill="#F97801" />
</svg>