<svg width="20" height="20" viewBox="0 0 20 20" fill="none" xmlns="http://www.w3.org/2000/svg">
<path d="M16.667 4.79175H11.667C11.3253 4.79175 11.042 4.50841 11.042 4.16675C11.042 3.82508 11.3253 3.54175 11.667 3.54175H16.667C17.0087 3.54175 17.292 3.82508 17.292 4.16675C17.292 4.50841 17.0087 4.79175 16.667 4.79175Z" fill="white"/>
<path d="M14.167 7.29175H11.667C11.3253 7.29175 11.042 7.00841 11.042 6.66675C11.042 6.32508 11.3253 6.04175 11.667 6.04175H14.167C14.5087 6.04175 14.792 6.32508 14.792 6.66675C14.792 7.00841 14.5087 7.29175 14.167 7.29175Z" fill="white"/>
<path d="M9.58366 18.1251C4.87533 18.1251 1.04199 14.2917 1.04199 9.58342C1.04199 4.87508 4.87533 1.04175 9.58366 1.04175C9.92533 1.04175 10.2087 1.32508 10.2087 1.66675C10.2087 2.00841 9.92533 2.29175 9.58366 2.29175C5.55866 2.29175 2.29199 5.56675 2.29199 9.58342C2.29199 13.6001 5.55866 16.8751 9.58366 16.8751C13.6087 16.8751 16.8753 13.6001 16.8753 9.58342C16.8753 9.24175 17.1587 8.95842 17.5003 8.95842C17.842 8.95842 18.1253 9.24175 18.1253 9.58342C18.1253 14.2917 14.292 18.1251 9.58366 18.1251Z" fill="white"/>
<path d="M18.3335 18.9583C18.1752 18.9583 18.0169 18.9 17.8919 18.775L16.2252 17.1083C15.9835 16.8666 15.9835 16.4666 16.2252 16.225C16.4669 15.9833 16.8669 15.9833 17.1085 16.225L18.7752 17.8916C19.0169 18.1333 19.0169 18.5333 18.7752 18.775C18.6502 18.9 18.4919 18.9583 18.3335 18.9583Z" fill="white"/>
</svg>
